<svg width="70" height="70" viewBox="0 0 70 70" fill="none" xmlns="http://www.w3.org/2000/svg">
  <g>
    <path d="M10 30L20 20L10 10V30Z" fill="#00C2FF"/> <!-- Simplified and updated colors -->
    <path d="M10 10L0 20L10 30V10Z" fill="#00C2FF"/>
    <path d="M30 30V50L40 40L30 30Z" fill="#00C2FF"/>
    <path d="M20 40L30 50V30L20 40Z" fill="#00C2FF"/>
    <path d="M60 60L50 50V70L60 60Z" fill="#00C2FF"/>
    <path d="M20 40L10 30V50L20 40Z" fill="#00C2FF"/>
    <path d="M30 70V50L20 60L30 70Z" fill="#00C2FF"/>
    <path d="M10 30L0 20V30H10Z" fill="#00C2FF"/>
    <path d="M10 50V30L0 40L10 50Z" fill="#00C2FF"/>
    <path d="M50 70L40 60V70H50Z" fill="#00C2FF"/>
    <path d="M50 50L40 60L50 70V50Z" fill="#00C2FF"/>
    <path d="M60 60L70 50H60V60Z" fill="#00C2FF"/>
    <path d="M60 40L55 45L50 50H60V40Z" fill="#00C2FF"/>
    <path d="M40 40L45 35L50 30H40V40Z" fill="#00C2FF"/>
    <path d="M40 20L35 25L30 30H40V20Z" fill="#00C2FF"/>
    <path d="M20 0L10 10H20V0Z" fill="#00C2FF"/>
    <path d="M20 20L25 15L30 10H20V20Z" fill="#00C2FF"/>
    <path d="M30 30L40 40V30H30Z" fill="#00C2FF"/>
    <path d="M50 50L60 60V50H50Z" fill="#00C2FF"/>
    <path d="M10 10L20 20V10H10Z" fill="#00C2FF"/>
    <path d="M20 70H30L20 60V70Z" fill="#00C2FF"/>
    <path d="M0 50H10L0 40V50Z" fill="#00C2FF"/>
    <path d="M30 50L20 40V50H30Z" fill="#00C2FF"/>
    <path d="M30 50L40 60V50H30Z" fill="#00C2FF"/>
    <path d="M10 30L20 40V30H10Z" fill="#00C2FF"/>
    <path d="M20 20L10 30H20V20Z" fill="#00C2FF"/>
    <path d="M20 40L30 30H20V40Z" fill="#00C2FF"/>
    <path d="M40 40L30 50H40V40Z" fill="#00C2FF"/>
    <path d="M40 60L50 50H40V60Z" fill="#00C2FF"/>
    <path d="M30 50V70L40 60L30 50Z" fill="#00C2FF"/>
    <path d="M70 0H60L65 5L70 0Z" fill="#00C2FF"/>
    <path d="M70 10V0L65 5L70 10Z" fill="#00C2FF"/>
    <path d="M60 0V10L65 5L60 0Z" fill="#00C2FF"/>
    <path d="M60 10H70L65 5L60 10Z" fill="#00C2FF"/>
    <path d="M60 30H65H70L60 20V25V30Z" fill="#00C2FF"/>
    <path d="M70 25V20H60L70 30V25Z" fill="#00C2FF"/>
    <path d="M70 10L65 15L70 20V15V10Z" fill="#00C2FF"/>
    <path d="M65 15L62.5 17.5L60 20H70L65 15Z" fill="#00C2FF"/>
    <path d="M40 10H45H46.0979H50L40 0V5V10Z" fill="#00C2FF"/>
    <path d="M45 0H40L50 10V0H45Z" fill="#00C2FF"/>
    <path d="M50 10L55 5L60 0H50V10Z" fill="#00C2FF"/>
  </g>
</svg>
